%TF.GenerationSoftware,KiCad,Pcbnew,(6.0.2-0)*%
%TF.CreationDate,2024-03-25T07:46:48-04:00*%
%TF.ProjectId,platemount,706c6174-656d-46f7-956e-742e6b696361,rev?*%
%TF.SameCoordinates,Original*%
%TF.FileFunction,Profile,NP*%
%FSLAX46Y46*%
G04 Gerber Fmt 4.6, Leading zero omitted, Abs format (unit mm)*
G04 Created by KiCad (PCBNEW (6.0.2-0)) date 2024-03-25 07:46:48*
%MOMM*%
%LPD*%
G01*
G04 APERTURE LIST*
%TA.AperFunction,Profile*%
%ADD10C,0.100000*%
%TD*%
G04 APERTURE END LIST*
D10*
X235600000Y-122087500D02*
G75*
G03*
X235100000Y-121587500I-500001J-1D01*
G01*
X59675000Y-103037500D02*
X59675000Y-116037500D01*
X131112500Y-96987500D02*
G75*
G03*
X131612500Y-97487500I500001J1D01*
G01*
X295418750Y-141137500D02*
X295418750Y-154137500D01*
X260200000Y-121587500D02*
X273200000Y-121587500D01*
X295918750Y-140637500D02*
X308918750Y-140637500D01*
X56925000Y-103037500D02*
G75*
G03*
X56425000Y-102537500I-500001J-1D01*
G01*
X309418750Y-141137500D02*
G75*
G03*
X308918750Y-140637500I-500087J-87D01*
G01*
X302562500Y-96987500D02*
G75*
G03*
X303062500Y-97487500I500001J1D01*
G01*
X55412500Y-83487500D02*
X68412500Y-83487500D01*
X283225000Y-160187500D02*
X283225000Y-173187500D01*
X159400000Y-122087500D02*
G75*
G03*
X158900000Y-121587500I-500001J-1D01*
G01*
X301440850Y-134691500D02*
X301440850Y-129595500D01*
X163662500Y-97487500D02*
G75*
G03*
X164162500Y-96987500I-1J500001D01*
G01*
X131112500Y-83987500D02*
X131112500Y-96987500D01*
X68912500Y-83987500D02*
X68912500Y-96987500D01*
X57293750Y-122087500D02*
X57293750Y-135087500D01*
X316850000Y-116037500D02*
G75*
G03*
X317350000Y-116537500I500001J1D01*
G01*
X59675000Y-173187500D02*
G75*
G03*
X60175000Y-173687500I500001J1D01*
G01*
X89084150Y-145351500D02*
X89084150Y-142447900D01*
X140939900Y-172377100D02*
G75*
G03*
X141439900Y-171877100I-1J500001D01*
G01*
X269725000Y-159687500D02*
G75*
G03*
X269225000Y-160187500I1J-500001D01*
G01*
X264475000Y-160187500D02*
X264475000Y-173187500D01*
X221600000Y-135087500D02*
G75*
G03*
X222100000Y-135587500I500001J1D01*
G01*
X322112500Y-140637500D02*
X335112500Y-140637500D01*
X54925000Y-160187500D02*
X54925000Y-173187500D01*
X145900000Y-121587500D02*
X158900000Y-121587500D01*
X188262500Y-173187500D02*
G75*
G03*
X188762500Y-173687500I500001J1D01*
G01*
X131612500Y-83487500D02*
X144612500Y-83487500D01*
X269225000Y-160187500D02*
X269225000Y-173187500D01*
X103037500Y-116537500D02*
X116037500Y-116537500D01*
X282725000Y-173687500D02*
G75*
G03*
X283225000Y-173187500I-1J500001D01*
G01*
X269725000Y-173687500D02*
X282725000Y-173687500D01*
X57793750Y-135587500D02*
X75556250Y-135587500D01*
X278462500Y-83987500D02*
X278462500Y-96987500D01*
X137088500Y-158915100D02*
G75*
G03*
X136588500Y-159415100I1J-500001D01*
G01*
X249387500Y-116537500D02*
G75*
G03*
X249887500Y-116037500I-1J500001D01*
G01*
X330850000Y-103037500D02*
G75*
G03*
X330350000Y-102537500I-500001J-1D01*
G01*
X60175000Y-116537500D02*
X73175000Y-116537500D01*
X59856750Y-154241500D02*
X59053350Y-154241500D01*
X251388500Y-158915100D02*
G75*
G03*
X250888500Y-159415100I1J-500001D01*
G01*
X335612500Y-83987500D02*
X335612500Y-96987500D01*
X192737500Y-103037500D02*
X192737500Y-116037500D01*
X121300000Y-122087500D02*
X121300000Y-135087500D01*
X273200000Y-135587500D02*
G75*
G03*
X273700000Y-135087500I-1J500001D01*
G01*
X268937500Y-103037500D02*
X268937500Y-116037500D01*
X83987500Y-159687500D02*
G75*
G03*
X83487500Y-160187500I1J-500001D01*
G01*
X287987500Y-103037500D02*
G75*
G03*
X287487500Y-102537500I-500001J-1D01*
G01*
X76425000Y-173187500D02*
G75*
G03*
X76925000Y-173687500I500001J1D01*
G01*
X83987500Y-102537500D02*
X96987500Y-102537500D01*
X264975000Y-159687500D02*
G75*
G03*
X264475000Y-160187500I1J-500001D01*
G01*
X314100000Y-160187500D02*
X314100000Y-173187500D01*
X60356750Y-154909900D02*
G75*
G03*
X60856750Y-155409900I500087J87D01*
G01*
X333600000Y-173187500D02*
G75*
G03*
X334100000Y-173687500I500001J1D01*
G01*
X88750000Y-121587500D02*
G75*
G03*
X88250000Y-122087500I1J-500001D01*
G01*
X212075000Y-141137500D02*
X212075000Y-154137500D01*
X141439900Y-168973500D02*
X141439900Y-171877100D01*
X76056250Y-122087500D02*
G75*
G03*
X75556250Y-121587500I-500087J-87D01*
G01*
X245412500Y-83987500D02*
X245412500Y-96987500D01*
X317350000Y-173687500D02*
X330350000Y-173687500D01*
X106512500Y-97487500D02*
G75*
G03*
X107012500Y-96987500I-1J500001D01*
G01*
X264462500Y-83987500D02*
X264462500Y-96987500D01*
X202550000Y-122087500D02*
X202550000Y-135087500D01*
X55425000Y-159687500D02*
X56425000Y-159687500D01*
X314600000Y-116537500D02*
G75*
G03*
X315100000Y-116037500I-1J500001D01*
G01*
X97775000Y-154137500D02*
G75*
G03*
X98275000Y-154637500I500001J1D01*
G01*
X333600000Y-116037500D02*
G75*
G03*
X334100000Y-116537500I500001J1D01*
G01*
X58189750Y-145351500D02*
X58553350Y-145351500D01*
X297012500Y-97487500D02*
G75*
G03*
X297512500Y-96987500I-1J500001D01*
G01*
X313600000Y-173687500D02*
G75*
G03*
X314100000Y-173187500I-1J500001D01*
G01*
X226362500Y-96987500D02*
G75*
G03*
X226862500Y-97487500I500001J1D01*
G01*
X317350000Y-159687500D02*
X330350000Y-159687500D01*
X83487500Y-160187500D02*
X83487500Y-173187500D01*
X260200000Y-135587500D02*
X273200000Y-135587500D01*
X65208150Y-142760700D02*
X66819000Y-142760700D01*
X154925000Y-154137500D02*
G75*
G03*
X155425000Y-154637500I500001J1D01*
G01*
X140350000Y-122087500D02*
G75*
G03*
X139850000Y-121587500I-500001J-1D01*
G01*
X104550000Y-160187500D02*
X104550000Y-173187500D01*
X130825000Y-141137500D02*
G75*
G03*
X130325000Y-140637500I-500001J-1D01*
G01*
X60356750Y-154741500D02*
G75*
G03*
X59856750Y-154241500I-500001J-1D01*
G01*
X308918750Y-154637500D02*
G75*
G03*
X309418750Y-154137500I36J499964D01*
G01*
X102550000Y-160187500D02*
X102550000Y-173187500D01*
X327620250Y-136359900D02*
X329668250Y-136359900D01*
X322112500Y-97487500D02*
X335112500Y-97487500D01*
X231625000Y-140637500D02*
G75*
G03*
X231125000Y-141137500I1J-500001D01*
G01*
X335100000Y-116537500D02*
G75*
G03*
X335600000Y-116037500I-1J500001D01*
G01*
X188762500Y-159687500D02*
X201762500Y-159687500D01*
X73675000Y-103037500D02*
G75*
G03*
X73175000Y-102537500I-500001J-1D01*
G01*
X217337500Y-102537500D02*
G75*
G03*
X216837500Y-103037500I1J-500001D01*
G01*
X53387800Y-176212798D02*
X337137798Y-176212798D01*
X250675000Y-140637500D02*
G75*
G03*
X250175000Y-141137500I1J-500001D01*
G01*
X260200000Y-121587500D02*
G75*
G03*
X259700000Y-122087500I1J-500001D01*
G01*
X84232750Y-154741500D02*
G75*
G03*
X83732750Y-154241500I-500087J-87D01*
G01*
X303244250Y-135691500D02*
G75*
G03*
X302744250Y-135191500I-500087J-87D01*
G01*
X62904750Y-155409900D02*
X60856750Y-155409900D01*
X76425000Y-160187500D02*
X76425000Y-173187500D01*
X82429350Y-153954100D02*
G75*
G03*
X81929350Y-153454100I-500087J-87D01*
G01*
X286475000Y-159687500D02*
G75*
G03*
X285975000Y-160187500I1J-500001D01*
G01*
X139136500Y-158915100D02*
X137088500Y-158915100D01*
X287987500Y-103037500D02*
X287987500Y-116037500D01*
X293537500Y-159687500D02*
X306537500Y-159687500D01*
X87962500Y-83987500D02*
X87962500Y-96987500D01*
X202550000Y-135087500D02*
G75*
G03*
X203050000Y-135587500I500001J1D01*
G01*
X207312500Y-96987500D02*
G75*
G03*
X207812500Y-97487500I500001J1D01*
G01*
X59675000Y-160187500D02*
X59675000Y-173187500D01*
X126050000Y-160187500D02*
G75*
G03*
X125550000Y-159687500I-500001J-1D01*
G01*
X292668750Y-141137500D02*
X292668750Y-154137500D01*
X66819000Y-153454100D02*
X66818750Y-154137500D01*
X278750000Y-135087500D02*
G75*
G03*
X279250000Y-135587500I500001J1D01*
G01*
X323706000Y-134404100D02*
X324816850Y-134404100D01*
X102537500Y-116037500D02*
G75*
G03*
X103037500Y-116537500I500001J1D01*
G01*
X330350000Y-116537500D02*
G75*
G03*
X330850000Y-116037500I-1J500001D01*
G01*
X93012500Y-96987500D02*
G75*
G03*
X93512500Y-97487500I500001J1D01*
G01*
X307037500Y-160187500D02*
G75*
G03*
X306537500Y-159687500I-500001J-1D01*
G01*
X168925000Y-141137500D02*
X168925000Y-154137500D01*
X248721500Y-168973500D02*
X249085100Y-168973500D01*
X331471650Y-135191500D02*
G75*
G03*
X331971650Y-134691500I36J499964D01*
G01*
X184000000Y-121587500D02*
X197000000Y-121587500D01*
X104550000Y-160187500D02*
G75*
G03*
X104050000Y-159687500I-500001J-1D01*
G01*
X67318750Y-154637500D02*
X80318750Y-154637500D01*
X145400000Y-122087500D02*
X145400000Y-135087500D01*
X321612500Y-154137500D02*
G75*
G03*
X322112500Y-154637500I500001J1D01*
G01*
X182712500Y-97487500D02*
G75*
G03*
X183212500Y-96987500I-1J500001D01*
G01*
X293537500Y-102537500D02*
G75*
G03*
X293037500Y-103037500I1J-500001D01*
G01*
X255437500Y-102537500D02*
G75*
G03*
X254937500Y-103037500I1J-500001D01*
G01*
X203050000Y-135587500D02*
X216050000Y-135587500D01*
X66818750Y-154137500D02*
G75*
G03*
X67318750Y-154637500I500087J87D01*
G01*
X312668750Y-154637500D02*
X313668750Y-154637500D01*
X139850000Y-135587500D02*
G75*
G03*
X140350000Y-135087500I-1J500001D01*
G01*
X308095650Y-123397900D02*
G75*
G03*
X307595650Y-122897900I-500087J-87D01*
G01*
X80819000Y-153454100D02*
X80818750Y-154137500D01*
X139636500Y-159583500D02*
X139636500Y-159415100D01*
X55412500Y-97487500D02*
X68412500Y-97487500D01*
X178737500Y-116037500D02*
G75*
G03*
X179237500Y-116537500I500001J1D01*
G01*
X87780750Y-154241500D02*
X88584150Y-154241500D01*
X259700000Y-122087500D02*
X259700000Y-135087500D01*
X89584150Y-148145500D02*
G75*
G03*
X89084150Y-148645500I-36J-499964D01*
G01*
X136088500Y-160083500D02*
G75*
G03*
X136588500Y-159583500I-1J500001D01*
G01*
X317350000Y-102537500D02*
X330350000Y-102537500D01*
X212575000Y-140637500D02*
G75*
G03*
X212075000Y-141137500I1J-500001D01*
G01*
X89947750Y-148145500D02*
X89947750Y-145851500D01*
X89084150Y-153741500D02*
X89084150Y-148645500D01*
X82429350Y-153954100D02*
X82429350Y-154241500D01*
X308095650Y-123710700D02*
X309706000Y-123710700D01*
X98275000Y-140637500D02*
G75*
G03*
X97775000Y-141137500I1J-500001D01*
G01*
X325316850Y-123397900D02*
X325316850Y-123710700D01*
X254436500Y-160083500D02*
X255239900Y-160083500D01*
X216550000Y-122087500D02*
X216550000Y-135087500D01*
X60175000Y-102537500D02*
G75*
G03*
X59675000Y-103037500I1J-500001D01*
G01*
X316850000Y-103037500D02*
X316850000Y-116037500D01*
X88584150Y-154241500D02*
G75*
G03*
X89084150Y-153741500I36J499964D01*
G01*
X124550000Y-159687500D02*
G75*
G03*
X124050000Y-160187500I1J-500001D01*
G01*
X116537500Y-103037500D02*
X116537500Y-116037500D01*
X292750000Y-122087500D02*
G75*
G03*
X292250000Y-121587500I-500001J-1D01*
G01*
X173187500Y-116537500D02*
G75*
G03*
X173687500Y-116037500I-1J500001D01*
G01*
X279250000Y-121587500D02*
G75*
G03*
X278750000Y-122087500I1J-500001D01*
G01*
X308787500Y-116037500D02*
G75*
G03*
X309287500Y-116537500I500001J1D01*
G01*
X312600000Y-173687500D02*
X313600000Y-173687500D01*
X335612500Y-141137500D02*
G75*
G03*
X335112500Y-140637500I-500001J-1D01*
G01*
X226862500Y-83487500D02*
G75*
G03*
X226362500Y-83987500I1J-500001D01*
G01*
X122087500Y-116537500D02*
X135087500Y-116537500D01*
X317350000Y-116537500D02*
X330350000Y-116537500D01*
X307037500Y-103037500D02*
X307037500Y-116037500D01*
X245125000Y-141137500D02*
G75*
G03*
X244625000Y-140637500I-500001J-1D01*
G01*
X183500000Y-135087500D02*
G75*
G03*
X184000000Y-135587500I500001J1D01*
G01*
X184000000Y-135587500D02*
X197000000Y-135587500D01*
X314168750Y-141137500D02*
G75*
G03*
X313668750Y-140637500I-500087J-87D01*
G01*
X107012500Y-83987500D02*
X107012500Y-96987500D01*
X264962500Y-83487500D02*
X277962500Y-83487500D01*
X312668750Y-140637500D02*
X313668750Y-140637500D01*
X164162500Y-83987500D02*
G75*
G03*
X163662500Y-83487500I-500001J-1D01*
G01*
X255739900Y-160583500D02*
X255739900Y-165679500D01*
X269725000Y-140637500D02*
G75*
G03*
X269225000Y-141137500I1J-500001D01*
G01*
X301440850Y-126301500D02*
X301440850Y-123397900D01*
X293037500Y-173187500D02*
G75*
G03*
X293537500Y-173687500I500001J1D01*
G01*
X255239900Y-172377100D02*
G75*
G03*
X255739900Y-171877100I-1J500001D01*
G01*
X254650000Y-122087500D02*
G75*
G03*
X254150000Y-121587500I-500001J-1D01*
G01*
X309287500Y-102537500D02*
X314600000Y-102537500D01*
X173975000Y-141137500D02*
X173975000Y-154137500D01*
X221312500Y-83987500D02*
X221312500Y-96987500D01*
X254937500Y-103037500D02*
X254937500Y-116037500D01*
X226862500Y-83487500D02*
X239862500Y-83487500D01*
X335112500Y-154637500D02*
G75*
G03*
X335612500Y-154137500I-1J500001D01*
G01*
X236387500Y-102537500D02*
G75*
G03*
X235887500Y-103037500I1J-500001D01*
G01*
X53387800Y-80962800D02*
G75*
G03*
X52387800Y-81962800I-1J-999999D01*
G01*
X96987500Y-173687500D02*
G75*
G03*
X97487500Y-173187500I-1J500001D01*
G01*
X330168250Y-135859900D02*
X330168250Y-135691500D01*
X211787500Y-103037500D02*
G75*
G03*
X211287500Y-102537500I-500001J-1D01*
G01*
X300577250Y-129095500D02*
X300577250Y-126801500D01*
X321612500Y-96987500D02*
G75*
G03*
X322112500Y-97487500I500001J1D01*
G01*
X56925000Y-160187500D02*
G75*
G03*
X56425000Y-159687500I-500001J-1D01*
G01*
X139636500Y-159415100D02*
G75*
G03*
X139136500Y-158915100I-500001J-1D01*
G01*
X56925000Y-160187500D02*
X56925000Y-173187500D01*
X73675000Y-160187500D02*
X73675000Y-173187500D01*
X249887500Y-103037500D02*
X249887500Y-116037500D01*
X116537500Y-103037500D02*
G75*
G03*
X116037500Y-102537500I-500001J-1D01*
G01*
X335600000Y-103037500D02*
X335600000Y-116037500D01*
X78425000Y-160187500D02*
G75*
G03*
X77925000Y-159687500I-500001J-1D01*
G01*
X160187500Y-116537500D02*
X173187500Y-116537500D01*
X250388500Y-160083500D02*
G75*
G03*
X250888500Y-159583500I-1J500001D01*
G01*
X248585100Y-166179500D02*
G75*
G03*
X249085100Y-165679500I-1J500001D01*
G01*
X101750000Y-135587500D02*
G75*
G03*
X102250000Y-135087500I-1J500001D01*
G01*
X335612500Y-83987500D02*
G75*
G03*
X335112500Y-83487500I-500001J-1D01*
G01*
X284012500Y-83487500D02*
G75*
G03*
X283512500Y-83987500I1J-500001D01*
G01*
X327120250Y-135859900D02*
G75*
G03*
X327620250Y-136359900I500087J87D01*
G01*
X107300000Y-122087500D02*
X107300000Y-135087500D01*
X173687500Y-103037500D02*
X173687500Y-116037500D01*
X231625000Y-140637500D02*
X244625000Y-140637500D01*
X150662500Y-83487500D02*
G75*
G03*
X150162500Y-83987500I1J-500001D01*
G01*
X322112500Y-83487500D02*
G75*
G03*
X321612500Y-83987500I1J-500001D01*
G01*
X150162500Y-96987500D02*
G75*
G03*
X150662500Y-97487500I500001J1D01*
G01*
X179237500Y-116537500D02*
X192237500Y-116537500D01*
X93512500Y-97487500D02*
X106512500Y-97487500D01*
X133921500Y-168473500D02*
G75*
G03*
X134421500Y-168973500I500001J1D01*
G01*
X98275000Y-154637500D02*
X111275000Y-154637500D01*
X297512500Y-83987500D02*
G75*
G03*
X297012500Y-83487500I-500001J-1D01*
G01*
X169712500Y-83487500D02*
X182712500Y-83487500D01*
X145900000Y-135587500D02*
X158900000Y-135587500D01*
X203050000Y-121587500D02*
X216050000Y-121587500D01*
X179237500Y-102537500D02*
G75*
G03*
X178737500Y-103037500I1J-500001D01*
G01*
X80306250Y-135587500D02*
G75*
G03*
X80806250Y-135087500I36J499964D01*
G01*
X75556250Y-135587500D02*
G75*
G03*
X76056250Y-135087500I36J499964D01*
G01*
X188263000Y-168987500D02*
X188262500Y-173187500D01*
X269225000Y-154137500D02*
G75*
G03*
X269725000Y-154637500I500001J1D01*
G01*
X60175000Y-159687500D02*
G75*
G03*
X59675000Y-160187500I1J-500001D01*
G01*
X211287500Y-116537500D02*
G75*
G03*
X211787500Y-116037500I-1J500001D01*
G01*
X159400000Y-122087500D02*
X159400000Y-135087500D01*
X245412500Y-96987500D02*
G75*
G03*
X245912500Y-97487500I500001J1D01*
G01*
X241150000Y-121587500D02*
X254150000Y-121587500D01*
X256239900Y-166179500D02*
X256603500Y-166179500D01*
X135285100Y-160083500D02*
G75*
G03*
X134785100Y-160583500I1J-500001D01*
G01*
X203050000Y-121587500D02*
G75*
G03*
X202550000Y-122087500I1J-500001D01*
G01*
X286475000Y-159687500D02*
X287475000Y-159687500D01*
X76056250Y-122087500D02*
X76056250Y-135087500D01*
X198287500Y-116537500D02*
X211287500Y-116537500D01*
X292668750Y-141137500D02*
G75*
G03*
X292168750Y-140637500I-500087J-87D01*
G01*
X65208150Y-154241500D02*
X63904750Y-154241500D01*
X75925000Y-102537500D02*
X81237500Y-102537500D01*
X88750000Y-135587500D02*
X101750000Y-135587500D01*
X52387800Y-175212798D02*
X52387800Y-81962800D01*
X53387800Y-80962800D02*
X337137798Y-80962800D01*
X273700000Y-122087500D02*
X273700000Y-135087500D01*
X82429350Y-142760700D02*
X80819000Y-142760700D01*
X335600000Y-160187500D02*
G75*
G03*
X335100000Y-159687500I-500001J-1D01*
G01*
X235887500Y-103037500D02*
X235887500Y-116037500D01*
X126350000Y-135087500D02*
G75*
G03*
X126850000Y-135587500I500001J1D01*
G01*
X330850000Y-160187500D02*
X330850000Y-173187500D01*
X130325000Y-154637500D02*
G75*
G03*
X130825000Y-154137500I-1J500001D01*
G01*
X112562500Y-83487500D02*
G75*
G03*
X112062500Y-83987500I1J-500001D01*
G01*
X187975000Y-141137500D02*
X187975000Y-154137500D01*
X197500000Y-122087500D02*
G75*
G03*
X197000000Y-121587500I-500001J-1D01*
G01*
X116825000Y-154137500D02*
G75*
G03*
X117325000Y-154637500I500001J1D01*
G01*
X249887500Y-103037500D02*
G75*
G03*
X249387500Y-102537500I-500001J-1D01*
G01*
X125550000Y-173687500D02*
G75*
G03*
X126050000Y-173187500I-1J500001D01*
G01*
X322112500Y-140637500D02*
G75*
G03*
X321612500Y-141137500I1J-500001D01*
G01*
X97775000Y-141137500D02*
X97775000Y-154137500D01*
X309287500Y-116537500D02*
X314600000Y-116537500D01*
X221600000Y-122087500D02*
X221600000Y-135087500D01*
X55425000Y-116537500D02*
X56425000Y-116537500D01*
X102250000Y-122087500D02*
G75*
G03*
X101750000Y-121587500I-500001J-1D01*
G01*
X169212500Y-83987500D02*
X169212500Y-96987500D01*
X331471650Y-122897900D02*
X325816850Y-122897900D01*
X248585100Y-166179500D02*
X248221500Y-166179500D01*
X251388500Y-158915100D02*
X253436500Y-158915100D01*
X322112500Y-154637500D02*
X335112500Y-154637500D01*
X325816850Y-122897900D02*
G75*
G03*
X325316850Y-123397900I-36J-499964D01*
G01*
X160187500Y-102537500D02*
G75*
G03*
X159687500Y-103037500I1J-500001D01*
G01*
X307037500Y-103037500D02*
G75*
G03*
X306537500Y-102537500I-500001J-1D01*
G01*
X321612500Y-141137500D02*
X321612500Y-154137500D01*
X334100000Y-102537500D02*
G75*
G03*
X333600000Y-103037500I1J-500001D01*
G01*
X231125000Y-154137500D02*
G75*
G03*
X231625000Y-154637500I500001J1D01*
G01*
X202262500Y-83987500D02*
G75*
G03*
X201762500Y-83487500I-500001J-1D01*
G01*
X316062500Y-97487500D02*
G75*
G03*
X316562500Y-96987500I-1J500001D01*
G01*
X329668250Y-136359900D02*
G75*
G03*
X330168250Y-135859900I36J499964D01*
G01*
X80806250Y-122087500D02*
G75*
G03*
X80306250Y-121587500I-500087J-87D01*
G01*
X253936500Y-159415100D02*
X253936500Y-159583500D01*
X79306250Y-135587500D02*
X80306250Y-135587500D01*
X83987500Y-159687500D02*
X96987500Y-159687500D01*
X300940850Y-129095500D02*
X300577250Y-129095500D01*
X131612500Y-97487500D02*
X144612500Y-97487500D01*
X313668750Y-154637500D02*
G75*
G03*
X314168750Y-154137500I36J499964D01*
G01*
X291168750Y-140637500D02*
X292168750Y-140637500D01*
X154137500Y-116537500D02*
G75*
G03*
X154637500Y-116037500I-1J500001D01*
G01*
X212575000Y-140637500D02*
X225575000Y-140637500D01*
X178737500Y-103037500D02*
X178737500Y-116037500D01*
X120800000Y-135587500D02*
G75*
G03*
X121300000Y-135087500I-1J500001D01*
G01*
X302744250Y-135191500D02*
X301940850Y-135191500D01*
X274487500Y-116537500D02*
X287487500Y-116537500D01*
X135587500Y-103037500D02*
X135587500Y-116037500D01*
X259412500Y-83987500D02*
X259412500Y-96987500D01*
X141439900Y-165679500D02*
G75*
G03*
X141939900Y-166179500I500001J1D01*
G01*
X192737500Y-103037500D02*
G75*
G03*
X192237500Y-102537500I-500001J-1D01*
G01*
X316562500Y-83987500D02*
X316562500Y-96987500D01*
X197787500Y-103037500D02*
X197787500Y-116037500D01*
X107300000Y-160187500D02*
X107300000Y-173187500D01*
X60356750Y-154909900D02*
X60356750Y-154741500D01*
X136375000Y-154637500D02*
X149375000Y-154637500D01*
X58553350Y-153741500D02*
X58553350Y-148645500D01*
X103050000Y-173687500D02*
X104050000Y-173687500D01*
X80318750Y-154637500D02*
G75*
G03*
X80818750Y-154137500I36J499964D01*
G01*
X141137500Y-116537500D02*
X154137500Y-116537500D01*
X293537500Y-159687500D02*
G75*
G03*
X293037500Y-160187500I1J-500001D01*
G01*
X87780750Y-154241500D02*
G75*
G03*
X87280750Y-154741500I-36J-499964D01*
G01*
X144612500Y-97487500D02*
G75*
G03*
X145112500Y-96987500I-1J500001D01*
G01*
X258912500Y-97487500D02*
G75*
G03*
X259412500Y-96987500I-1J500001D01*
G01*
X212075000Y-154137500D02*
G75*
G03*
X212575000Y-154637500I500001J1D01*
G01*
X285975000Y-160187500D02*
X285975000Y-173187500D01*
X323706000Y-134404100D02*
X323706250Y-135087500D01*
X197500000Y-122087500D02*
X197500000Y-135087500D01*
X278750000Y-122087500D02*
X278750000Y-135087500D01*
X124050000Y-160187500D02*
X124050000Y-173187500D01*
X54912500Y-83987500D02*
X54912500Y-96987500D01*
X284012500Y-83487500D02*
X297012500Y-83487500D01*
X60175000Y-173687500D02*
X73175000Y-173687500D01*
X266475000Y-160187500D02*
G75*
G03*
X265975000Y-159687500I-500001J-1D01*
G01*
X303062500Y-83487500D02*
G75*
G03*
X302562500Y-83987500I1J-500001D01*
G01*
X273987500Y-103037500D02*
X273987500Y-116037500D01*
X60175000Y-102537500D02*
X73175000Y-102537500D01*
X293037500Y-160187500D02*
X293037500Y-173187500D01*
X168275000Y-166687500D02*
G75*
G03*
X168275000Y-166687500I-3175000J0D01*
G01*
X245912500Y-97487500D02*
X258912500Y-97487500D01*
X256103500Y-168973500D02*
X255739900Y-168973500D01*
X253936500Y-159583500D02*
G75*
G03*
X254436500Y-160083500I500001J1D01*
G01*
X206525000Y-154637500D02*
G75*
G03*
X207025000Y-154137500I-1J500001D01*
G01*
X159687500Y-116037500D02*
G75*
G03*
X160187500Y-116537500I500001J1D01*
G01*
X54912500Y-96987500D02*
G75*
G03*
X55412500Y-97487500I500001J1D01*
G01*
X250175000Y-154137500D02*
G75*
G03*
X250675000Y-154637500I500001J1D01*
G01*
X283225000Y-141137500D02*
X283225000Y-154137500D01*
X62904750Y-155409900D02*
G75*
G03*
X63404750Y-154909900I36J499964D01*
G01*
X179237500Y-102537500D02*
X192237500Y-102537500D01*
X268437500Y-116537500D02*
G75*
G03*
X268937500Y-116037500I-1J500001D01*
G01*
X254937500Y-116037500D02*
G75*
G03*
X255437500Y-116537500I500001J1D01*
G01*
X235887500Y-116037500D02*
G75*
G03*
X236387500Y-116537500I500001J1D01*
G01*
X216050000Y-135587500D02*
G75*
G03*
X216550000Y-135087500I-1J500001D01*
G01*
X58189750Y-145351500D02*
G75*
G03*
X57689750Y-145851500I1J-500001D01*
G01*
X241150000Y-121587500D02*
G75*
G03*
X240650000Y-122087500I1J-500001D01*
G01*
X279250000Y-135587500D02*
X292250000Y-135587500D01*
X158900000Y-135587500D02*
G75*
G03*
X159400000Y-135087500I-1J500001D01*
G01*
X192237500Y-116537500D02*
G75*
G03*
X192737500Y-116037500I-1J500001D01*
G01*
X187475000Y-154637500D02*
G75*
G03*
X187975000Y-154137500I-1J500001D01*
G01*
X264975000Y-159687500D02*
X265975000Y-159687500D01*
X74462500Y-83487500D02*
G75*
G03*
X73962500Y-83987500I1J-500001D01*
G01*
X88750000Y-121587500D02*
X101750000Y-121587500D01*
X302562500Y-83987500D02*
X302562500Y-96987500D01*
X264462500Y-96987500D02*
G75*
G03*
X264962500Y-97487500I500001J1D01*
G01*
X155425000Y-140637500D02*
G75*
G03*
X154925000Y-141137500I1J-500001D01*
G01*
X149875000Y-141137500D02*
X149875000Y-154137500D01*
X66818750Y-141137500D02*
X66819000Y-142760700D01*
X269725000Y-159687500D02*
X282725000Y-159687500D01*
X57689750Y-148145500D02*
X57689750Y-145851500D01*
X222100000Y-121587500D02*
G75*
G03*
X221600000Y-122087500I1J-500001D01*
G01*
X141137500Y-102537500D02*
X154137500Y-102537500D01*
X67318750Y-140637500D02*
G75*
G03*
X66818750Y-141137500I-36J-499964D01*
G01*
X253936500Y-159415100D02*
G75*
G03*
X253436500Y-158915100I-500001J-1D01*
G01*
X87962500Y-83987500D02*
G75*
G03*
X87462500Y-83487500I-500001J-1D01*
G01*
X264975000Y-173687500D02*
X265975000Y-173687500D01*
X65208150Y-142447900D02*
X65208150Y-142760700D01*
X193525000Y-154637500D02*
X206525000Y-154637500D01*
X75425000Y-103037500D02*
X75425000Y-116037500D01*
X309706000Y-134404100D02*
X308595650Y-134404100D01*
X244625000Y-154637500D02*
G75*
G03*
X245125000Y-154137500I-1J500001D01*
G01*
X327120250Y-135691500D02*
X327120250Y-135859900D01*
X198287500Y-102537500D02*
G75*
G03*
X197787500Y-103037500I1J-500001D01*
G01*
X134285100Y-166179500D02*
G75*
G03*
X134785100Y-165679500I-1J500001D01*
G01*
X83987500Y-173687500D02*
X96987500Y-173687500D01*
X308095650Y-135191500D02*
X306792250Y-135191500D01*
X130825000Y-141137500D02*
X130825000Y-154137500D01*
X93012500Y-83987500D02*
X93012500Y-96987500D01*
X73962500Y-96987500D02*
G75*
G03*
X74462500Y-97487500I500001J1D01*
G01*
X54925000Y-103037500D02*
X54925000Y-116037500D01*
X273700000Y-122087500D02*
G75*
G03*
X273200000Y-121587500I-500001J-1D01*
G01*
X77925000Y-173687500D02*
G75*
G03*
X78425000Y-173187500I-1J500001D01*
G01*
X264962500Y-83487500D02*
G75*
G03*
X264462500Y-83987500I1J-500001D01*
G01*
X291168750Y-154637500D02*
X292168750Y-154637500D01*
X174475000Y-140637500D02*
X187475000Y-140637500D01*
X56425000Y-116537500D02*
G75*
G03*
X56925000Y-116037500I-1J500001D01*
G01*
X164450000Y-135087500D02*
G75*
G03*
X164950000Y-135587500I500001J1D01*
G01*
X134785100Y-160583500D02*
X134785100Y-165679500D01*
X314168750Y-141137500D02*
X314168750Y-154137500D01*
X126850000Y-121587500D02*
G75*
G03*
X126350000Y-122087500I1J-500001D01*
G01*
X212575000Y-154637500D02*
X225575000Y-154637500D01*
X193525000Y-140637500D02*
X206525000Y-140637500D01*
X325316850Y-135191500D02*
X326620250Y-135191500D01*
X136588500Y-159415100D02*
X136588500Y-159583500D01*
X58553350Y-148645500D02*
G75*
G03*
X58053350Y-148145500I-500001J-1D01*
G01*
X323206250Y-135587500D02*
G75*
G03*
X323706250Y-135087500I36J499964D01*
G01*
X73962500Y-83987500D02*
X73962500Y-96987500D01*
X122087500Y-102537500D02*
X135087500Y-102537500D01*
X145112500Y-83987500D02*
X145112500Y-96987500D01*
X307037500Y-160187500D02*
X307037500Y-173187500D01*
X78806250Y-122087500D02*
X78806250Y-135087500D01*
X312100000Y-173187500D02*
G75*
G03*
X312600000Y-173687500I500001J1D01*
G01*
X249585100Y-160083500D02*
G75*
G03*
X249085100Y-160583500I1J-500001D01*
G01*
X303244250Y-135859900D02*
G75*
G03*
X303744250Y-136359900I500087J87D01*
G01*
X249085100Y-168973500D02*
X249085100Y-171877100D01*
X287487500Y-116537500D02*
G75*
G03*
X287987500Y-116037500I-1J500001D01*
G01*
X83987500Y-102537500D02*
G75*
G03*
X83487500Y-103037500I1J-500001D01*
G01*
X292750000Y-122087500D02*
X292750000Y-135087500D01*
X54925000Y-173187500D02*
G75*
G03*
X55425000Y-173687500I500001J1D01*
G01*
X136375000Y-140637500D02*
G75*
G03*
X135875000Y-141137500I1J-500001D01*
G01*
X82429350Y-142447900D02*
X82429350Y-142760700D01*
X103050000Y-159687500D02*
X104050000Y-159687500D01*
X75425000Y-116037500D02*
G75*
G03*
X75925000Y-116537500I500001J1D01*
G01*
X334100000Y-159687500D02*
G75*
G03*
X333600000Y-160187500I1J-500001D01*
G01*
X292250000Y-135587500D02*
G75*
G03*
X292750000Y-135087500I-1J500001D01*
G01*
X104050000Y-173687500D02*
G75*
G03*
X104550000Y-173187500I-1J500001D01*
G01*
X331971650Y-123397900D02*
G75*
G03*
X331471650Y-122897900I-500087J-87D01*
G01*
X334100000Y-116537500D02*
X335100000Y-116537500D01*
X121587500Y-103037500D02*
X121587500Y-116037500D01*
X149375000Y-154637500D02*
G75*
G03*
X149875000Y-154137500I-1J500001D01*
G01*
X79306250Y-121587500D02*
G75*
G03*
X78806250Y-122087500I-36J-499964D01*
G01*
X255739900Y-160583500D02*
G75*
G03*
X255239900Y-160083500I-500001J-1D01*
G01*
X116037500Y-116537500D02*
G75*
G03*
X116537500Y-116037500I-1J500001D01*
G01*
X325316850Y-134904100D02*
G75*
G03*
X324816850Y-134404100I-500087J-87D01*
G01*
X187975000Y-141137500D02*
G75*
G03*
X187475000Y-140637500I-500001J-1D01*
G01*
X67318750Y-140637500D02*
X80318750Y-140637500D01*
X293537500Y-102537500D02*
X306537500Y-102537500D01*
X338137798Y-81962800D02*
G75*
G03*
X337137798Y-80962800I-999999J1D01*
G01*
X97487500Y-160187500D02*
X97487500Y-173187500D01*
X335600000Y-160187500D02*
X335600000Y-173187500D01*
X84232750Y-154741500D02*
X84232750Y-154909900D01*
X222100000Y-135587500D02*
X235100000Y-135587500D01*
X207812500Y-83487500D02*
X220812500Y-83487500D01*
X173687500Y-103037500D02*
G75*
G03*
X173187500Y-102537500I-500001J-1D01*
G01*
X301440850Y-134691500D02*
G75*
G03*
X301940850Y-135191500I500087J87D01*
G01*
X73675000Y-160187500D02*
G75*
G03*
X73175000Y-159687500I-500001J-1D01*
G01*
X140637500Y-103037500D02*
X140637500Y-116037500D01*
X301940850Y-122897900D02*
G75*
G03*
X301440850Y-123397900I-36J-499964D01*
G01*
X284012500Y-97487500D02*
X297012500Y-97487500D01*
X117325000Y-154637500D02*
X130325000Y-154637500D01*
X141439900Y-160583500D02*
X141439900Y-165679500D01*
X96987500Y-116537500D02*
G75*
G03*
X97487500Y-116037500I-1J500001D01*
G01*
X54925000Y-116037500D02*
G75*
G03*
X55425000Y-116537500I500001J1D01*
G01*
X248221500Y-168473500D02*
G75*
G03*
X248721500Y-168973500I500001J1D01*
G01*
X323706250Y-122087500D02*
X323706000Y-123710700D01*
X168425000Y-154637500D02*
G75*
G03*
X168925000Y-154137500I-1J500001D01*
G01*
X256103500Y-168973500D02*
G75*
G03*
X256603500Y-168473500I-1J500001D01*
G01*
X332471650Y-129095500D02*
G75*
G03*
X331971650Y-129595500I-36J-499964D01*
G01*
X305792250Y-136359900D02*
G75*
G03*
X306292250Y-135859900I36J499964D01*
G01*
X86780750Y-155409900D02*
G75*
G03*
X87280750Y-154909900I36J499964D01*
G01*
X168925000Y-141137500D02*
G75*
G03*
X168425000Y-140637500I-500001J-1D01*
G01*
X73675000Y-103037500D02*
X73675000Y-116037500D01*
X55412500Y-83487500D02*
G75*
G03*
X54912500Y-83987500I1J-500001D01*
G01*
X283225000Y-160187500D02*
G75*
G03*
X282725000Y-159687500I-500001J-1D01*
G01*
X269725000Y-154637500D02*
X282725000Y-154637500D01*
X330668250Y-135191500D02*
G75*
G03*
X330168250Y-135691500I-36J-499964D01*
G01*
X83987500Y-116537500D02*
X96987500Y-116537500D01*
X330850000Y-103037500D02*
X330850000Y-116037500D01*
X254650000Y-122087500D02*
X254650000Y-135087500D01*
X107800000Y-173687500D02*
X120800000Y-173687500D01*
X255437500Y-102537500D02*
X268437500Y-102537500D01*
X269225000Y-141137500D02*
X269225000Y-154137500D01*
X309287500Y-102537500D02*
G75*
G03*
X308787500Y-103037500I1J-500001D01*
G01*
X134285100Y-166179500D02*
X133921500Y-166179500D01*
X301440850Y-129595500D02*
G75*
G03*
X300940850Y-129095500I-500087J-87D01*
G01*
X124550000Y-159687500D02*
X125550000Y-159687500D01*
X230337500Y-116537500D02*
G75*
G03*
X230837500Y-116037500I-1J500001D01*
G01*
X107800000Y-159687500D02*
X120800000Y-159687500D01*
X150662500Y-83487500D02*
X163662500Y-83487500D01*
X198287500Y-102537500D02*
X211287500Y-102537500D01*
X283512500Y-96987500D02*
G75*
G03*
X284012500Y-97487500I500001J1D01*
G01*
X145900000Y-121587500D02*
G75*
G03*
X145400000Y-122087500I1J-500001D01*
G01*
X111775000Y-141137500D02*
X111775000Y-154137500D01*
X126850000Y-121587500D02*
X139850000Y-121587500D01*
X188262500Y-96987500D02*
G75*
G03*
X188762500Y-97487500I500001J1D01*
G01*
X309706000Y-134404100D02*
X309706250Y-135087500D01*
X89584150Y-148145500D02*
X89947750Y-148145500D01*
X169212500Y-96987500D02*
G75*
G03*
X169712500Y-97487500I500001J1D01*
G01*
X112562500Y-83487500D02*
X125562500Y-83487500D01*
X135285100Y-172377100D02*
X140939900Y-172377100D01*
X141137500Y-102537500D02*
G75*
G03*
X140637500Y-103037500I1J-500001D01*
G01*
X201762500Y-173687500D02*
G75*
G03*
X202262500Y-173187500I-1J500001D01*
G01*
X145112500Y-83987500D02*
G75*
G03*
X144612500Y-83487500I-500001J-1D01*
G01*
X80818750Y-141137500D02*
G75*
G03*
X80318750Y-140637500I-500087J-87D01*
G01*
X217337500Y-102537500D02*
X230337500Y-102537500D01*
X122087500Y-102537500D02*
G75*
G03*
X121587500Y-103037500I1J-500001D01*
G01*
X83487500Y-116037500D02*
G75*
G03*
X83987500Y-116537500I500001J1D01*
G01*
X317350000Y-102537500D02*
G75*
G03*
X316850000Y-103037500I1J-500001D01*
G01*
X335100000Y-173687500D02*
G75*
G03*
X335600000Y-173187500I-1J500001D01*
G01*
X93512500Y-83487500D02*
G75*
G03*
X93012500Y-83987500I1J-500001D01*
G01*
X333600000Y-103037500D02*
X333600000Y-116037500D01*
X226075000Y-141137500D02*
X226075000Y-154137500D01*
X312600000Y-159687500D02*
X313600000Y-159687500D01*
X56425000Y-173687500D02*
G75*
G03*
X56925000Y-173187500I-1J500001D01*
G01*
X149875000Y-141137500D02*
G75*
G03*
X149375000Y-140637500I-500001J-1D01*
G01*
X293537500Y-173687500D02*
X306537500Y-173687500D01*
X84732750Y-155409900D02*
X86780750Y-155409900D01*
X250675000Y-140637500D02*
X263675000Y-140637500D01*
X126062500Y-83987500D02*
G75*
G03*
X125562500Y-83487500I-500001J-1D01*
G01*
X102550000Y-173187500D02*
G75*
G03*
X103050000Y-173687500I500001J1D01*
G01*
X325316850Y-134904100D02*
X325316850Y-135191500D01*
X68412500Y-97487500D02*
G75*
G03*
X68912500Y-96987500I-1J500001D01*
G01*
X134785100Y-168973500D02*
X134785100Y-171877100D01*
X164450000Y-122087500D02*
X164450000Y-135087500D01*
X309418750Y-141137500D02*
X309418750Y-154137500D01*
X60175000Y-159687500D02*
X73175000Y-159687500D01*
X283512500Y-83987500D02*
X283512500Y-96987500D01*
X79306250Y-121587500D02*
X80306250Y-121587500D01*
X230837500Y-103037500D02*
X230837500Y-116037500D01*
X217337500Y-116537500D02*
X230337500Y-116537500D01*
X160187500Y-102537500D02*
X173187500Y-102537500D01*
X250675000Y-154637500D02*
X263675000Y-154637500D01*
X287475000Y-173687500D02*
G75*
G03*
X287975000Y-173187500I-1J500001D01*
G01*
X107300000Y-173187500D02*
G75*
G03*
X107800000Y-173687500I500001J1D01*
G01*
X73175000Y-173687500D02*
G75*
G03*
X73675000Y-173187500I-1J500001D01*
G01*
X164950000Y-135587500D02*
X177950000Y-135587500D01*
X202262500Y-160187500D02*
G75*
G03*
X201762500Y-159687500I-500001J-1D01*
G01*
X221312500Y-83987500D02*
G75*
G03*
X220812500Y-83487500I-500001J-1D01*
G01*
X141803500Y-168973500D02*
G75*
G03*
X142303500Y-168473500I-1J500001D01*
G01*
X169712500Y-97487500D02*
X182712500Y-97487500D01*
X107800000Y-159687500D02*
G75*
G03*
X107300000Y-160187500I1J-500001D01*
G01*
X216837500Y-116037500D02*
G75*
G03*
X217337500Y-116537500I500001J1D01*
G01*
X140350000Y-122087500D02*
X140350000Y-135087500D01*
X136375000Y-140637500D02*
X149375000Y-140637500D01*
X66819000Y-153454100D02*
X65708150Y-153454100D01*
X332835250Y-129095500D02*
X332835250Y-126801500D01*
X231125000Y-141137500D02*
X231125000Y-154137500D01*
X268937500Y-103037500D02*
G75*
G03*
X268437500Y-102537500I-500001J-1D01*
G01*
X330668250Y-135191500D02*
X331471650Y-135191500D01*
X216550000Y-122087500D02*
G75*
G03*
X216050000Y-121587500I-500001J-1D01*
G01*
X230837500Y-103037500D02*
G75*
G03*
X230337500Y-102537500I-500001J-1D01*
G01*
X306292250Y-135691500D02*
X306292250Y-135859900D01*
X126062500Y-83987500D02*
X126062500Y-96987500D01*
X263675000Y-154637500D02*
G75*
G03*
X264175000Y-154137500I-1J500001D01*
G01*
X89447750Y-145351500D02*
X89084150Y-145351500D01*
X154637500Y-103037500D02*
G75*
G03*
X154137500Y-102537500I-500001J-1D01*
G01*
X332835250Y-126801500D02*
G75*
G03*
X332335250Y-126301500I-500087J-87D01*
G01*
X135087500Y-116537500D02*
G75*
G03*
X135587500Y-116037500I-1J500001D01*
G01*
X88250000Y-135087500D02*
G75*
G03*
X88750000Y-135587500I500001J1D01*
G01*
X245125000Y-141137500D02*
X245125000Y-154137500D01*
X169712500Y-83487500D02*
G75*
G03*
X169212500Y-83987500I1J-500001D01*
G01*
X283225000Y-141137500D02*
G75*
G03*
X282725000Y-140637500I-500001J-1D01*
G01*
X177950000Y-135587500D02*
G75*
G03*
X178450000Y-135087500I-1J500001D01*
G01*
X282725000Y-154637500D02*
G75*
G03*
X283225000Y-154137500I-1J500001D01*
G01*
X202262500Y-83987500D02*
X202262500Y-96987500D01*
X133921500Y-166179500D02*
X133921500Y-168473500D01*
X330350000Y-173687500D02*
G75*
G03*
X330850000Y-173187500I-1J500001D01*
G01*
X306537500Y-173687500D02*
G75*
G03*
X307037500Y-173187500I-1J500001D01*
G01*
X52387800Y-175212798D02*
G75*
G03*
X53387800Y-176212798I999999J-1D01*
G01*
X75925000Y-102537500D02*
G75*
G03*
X75425000Y-103037500I1J-500001D01*
G01*
X274487500Y-102537500D02*
X287487500Y-102537500D01*
X255739900Y-165679500D02*
G75*
G03*
X256239900Y-166179500I500001J1D01*
G01*
X164950000Y-121587500D02*
X177950000Y-121587500D01*
X87462500Y-97487500D02*
G75*
G03*
X87962500Y-96987500I-1J500001D01*
G01*
X58553350Y-153741500D02*
G75*
G03*
X59053350Y-154241500I500001J1D01*
G01*
X295918750Y-140637500D02*
G75*
G03*
X295418750Y-141137500I-36J-499964D01*
G01*
X68912500Y-83987500D02*
G75*
G03*
X68412500Y-83487500I-500001J-1D01*
G01*
X235600000Y-122087500D02*
X235600000Y-135087500D01*
X312168750Y-141137500D02*
X312168750Y-154137500D01*
X290668750Y-154137500D02*
G75*
G03*
X291168750Y-154637500I500087J87D01*
G01*
X193025000Y-154137500D02*
G75*
G03*
X193525000Y-154637500I500001J1D01*
G01*
X309706250Y-135087500D02*
G75*
G03*
X310206250Y-135587500I500087J87D01*
G01*
X226862500Y-97487500D02*
X239862500Y-97487500D01*
X74462500Y-83487500D02*
X87462500Y-83487500D01*
X312600000Y-159687500D02*
G75*
G03*
X312100000Y-160187500I1J-500001D01*
G01*
X337137798Y-176212798D02*
G75*
G03*
X338137798Y-175212798I1J999999D01*
G01*
X188762500Y-83487500D02*
G75*
G03*
X188262500Y-83987500I1J-500001D01*
G01*
X309706250Y-122087500D02*
X309706000Y-123710700D01*
X139636500Y-159583500D02*
G75*
G03*
X140136500Y-160083500I500001J1D01*
G01*
X107800000Y-121587500D02*
G75*
G03*
X107300000Y-122087500I1J-500001D01*
G01*
X107800000Y-121587500D02*
X120800000Y-121587500D01*
X222100000Y-121587500D02*
X235100000Y-121587500D01*
X140637500Y-116037500D02*
G75*
G03*
X141137500Y-116537500I500001J1D01*
G01*
X207025000Y-141137500D02*
G75*
G03*
X206525000Y-140637500I-500001J-1D01*
G01*
X59053350Y-141947900D02*
X64708150Y-141947900D01*
X173975000Y-154137500D02*
G75*
G03*
X174475000Y-154637500I500001J1D01*
G01*
X188762500Y-159687500D02*
G75*
G03*
X188262500Y-160187500I1J-500001D01*
G01*
X231625000Y-154637500D02*
X244625000Y-154637500D01*
X334100000Y-102537500D02*
X335100000Y-102537500D01*
X58053350Y-148145500D02*
X57689750Y-148145500D01*
X78425000Y-160187500D02*
X78425000Y-173187500D01*
X126850000Y-135587500D02*
X139850000Y-135587500D01*
X126050000Y-160187500D02*
X126050000Y-173187500D01*
X76925000Y-173687500D02*
X77925000Y-173687500D01*
X312100000Y-160187500D02*
X312100000Y-173187500D01*
X310206250Y-121587500D02*
X323206250Y-121587500D01*
X107012500Y-83987500D02*
G75*
G03*
X106512500Y-83487500I-500001J-1D01*
G01*
X178450000Y-122087500D02*
X178450000Y-135087500D01*
X308595650Y-134404100D02*
G75*
G03*
X308095650Y-134904100I-36J-499964D01*
G01*
X269225000Y-173187500D02*
G75*
G03*
X269725000Y-173687500I500001J1D01*
G01*
X310206250Y-135587500D02*
X323206250Y-135587500D01*
X274487500Y-102537500D02*
G75*
G03*
X273987500Y-103037500I1J-500001D01*
G01*
X63404750Y-154741500D02*
X63404750Y-154909900D01*
X103037500Y-102537500D02*
X116037500Y-102537500D01*
X55425000Y-102537500D02*
G75*
G03*
X54925000Y-103037500I1J-500001D01*
G01*
X334100000Y-159687500D02*
X335100000Y-159687500D01*
X255437500Y-116537500D02*
X268437500Y-116537500D01*
X78806250Y-135087500D02*
G75*
G03*
X79306250Y-135587500I500087J87D01*
G01*
X211787500Y-103037500D02*
X211787500Y-116037500D01*
X125562500Y-97487500D02*
G75*
G03*
X126062500Y-96987500I-1J500001D01*
G01*
X164950000Y-121587500D02*
G75*
G03*
X164450000Y-122087500I1J-500001D01*
G01*
X155425000Y-140637500D02*
X168425000Y-140637500D01*
X188762500Y-83487500D02*
X201762500Y-83487500D01*
X264475000Y-173187500D02*
G75*
G03*
X264975000Y-173687500I500001J1D01*
G01*
X141803500Y-168973500D02*
X141439900Y-168973500D01*
X301077250Y-126301500D02*
G75*
G03*
X300577250Y-126801500I-36J-499964D01*
G01*
X57793750Y-121587500D02*
X75556250Y-121587500D01*
X236387500Y-102537500D02*
X249387500Y-102537500D01*
X332335250Y-126301500D02*
X331971650Y-126301500D01*
X240362500Y-83987500D02*
G75*
G03*
X239862500Y-83487500I-500001J-1D01*
G01*
X225575000Y-154637500D02*
G75*
G03*
X226075000Y-154137500I-1J500001D01*
G01*
X135587500Y-103037500D02*
G75*
G03*
X135087500Y-102537500I-500001J-1D01*
G01*
X57293750Y-135087500D02*
G75*
G03*
X57793750Y-135587500I500001J1D01*
G01*
X81237500Y-116537500D02*
G75*
G03*
X81737500Y-116037500I-1J500001D01*
G01*
X207025000Y-141137500D02*
X207025000Y-154137500D01*
X97487500Y-160187500D02*
G75*
G03*
X96987500Y-159687500I-500001J-1D01*
G01*
X183212500Y-83987500D02*
X183212500Y-96987500D01*
X332471650Y-129095500D02*
X332835250Y-129095500D01*
X141939900Y-166179500D02*
X142303500Y-166179500D01*
X312668750Y-140637500D02*
G75*
G03*
X312168750Y-141137500I-36J-499964D01*
G01*
X316850000Y-160187500D02*
X316850000Y-173187500D01*
X287975000Y-160187500D02*
G75*
G03*
X287475000Y-159687500I-500001J-1D01*
G01*
X291168750Y-140637500D02*
G75*
G03*
X290668750Y-141137500I-36J-499964D01*
G01*
X325316850Y-123710700D02*
X323706000Y-123710700D01*
X249085100Y-171877100D02*
G75*
G03*
X249585100Y-172377100I500001J1D01*
G01*
X120800000Y-173687500D02*
G75*
G03*
X121300000Y-173187500I-1J500001D01*
G01*
X154637500Y-103037500D02*
X154637500Y-116037500D01*
X285975000Y-173187500D02*
G75*
G03*
X286475000Y-173687500I500001J1D01*
G01*
X142303500Y-166179500D02*
X142303500Y-168473500D01*
X287975000Y-160187500D02*
X287975000Y-173187500D01*
X111775000Y-141137500D02*
G75*
G03*
X111275000Y-140637500I-500001J-1D01*
G01*
X264962500Y-97487500D02*
X277962500Y-97487500D01*
X306792250Y-135191500D02*
G75*
G03*
X306292250Y-135691500I-36J-499964D01*
G01*
X303062500Y-83487500D02*
X316062500Y-83487500D01*
X159687500Y-103037500D02*
X159687500Y-116037500D01*
X240650000Y-135087500D02*
G75*
G03*
X241150000Y-135587500I500001J1D01*
G01*
X87280750Y-154909900D02*
X87280750Y-154741500D01*
X141439900Y-160583500D02*
G75*
G03*
X140939900Y-160083500I-500001J-1D01*
G01*
X264175000Y-141137500D02*
X264175000Y-154137500D01*
X89947750Y-145851500D02*
G75*
G03*
X89447750Y-145351500I-500087J-87D01*
G01*
X277962500Y-97487500D02*
G75*
G03*
X278462500Y-96987500I-1J500001D01*
G01*
X235100000Y-135587500D02*
G75*
G03*
X235600000Y-135087500I-1J500001D01*
G01*
X197787500Y-116037500D02*
G75*
G03*
X198287500Y-116537500I500001J1D01*
G01*
X293537500Y-116537500D02*
X306537500Y-116537500D01*
X240362500Y-83987500D02*
X240362500Y-96987500D01*
X197000000Y-135587500D02*
G75*
G03*
X197500000Y-135087500I-1J500001D01*
G01*
X245912500Y-83487500D02*
X258912500Y-83487500D01*
X259700000Y-135087500D02*
G75*
G03*
X260200000Y-135587500I500001J1D01*
G01*
X202263000Y-168987500D02*
X202262500Y-173187500D01*
X316850000Y-173187500D02*
G75*
G03*
X317350000Y-173687500I500001J1D01*
G01*
X240650000Y-122087500D02*
X240650000Y-135087500D01*
X226075000Y-141137500D02*
G75*
G03*
X225575000Y-140637500I-500001J-1D01*
G01*
X117325000Y-140637500D02*
G75*
G03*
X116825000Y-141137500I1J-500001D01*
G01*
X97487500Y-103037500D02*
X97487500Y-116037500D01*
X269725000Y-140637500D02*
X282725000Y-140637500D01*
X308787500Y-103037500D02*
X308787500Y-116037500D01*
X279250000Y-121587500D02*
X292250000Y-121587500D01*
X322112500Y-83487500D02*
X335112500Y-83487500D01*
X155425000Y-154637500D02*
X168425000Y-154637500D01*
X301940850Y-122897900D02*
X307595650Y-122897900D01*
X174475000Y-140637500D02*
G75*
G03*
X173975000Y-141137500I1J-500001D01*
G01*
X102250000Y-122087500D02*
X102250000Y-135087500D01*
X88584150Y-141947900D02*
X82929350Y-141947900D01*
X226362500Y-83987500D02*
X226362500Y-96987500D01*
X59053350Y-141947900D02*
G75*
G03*
X58553350Y-142447900I1J-500001D01*
G01*
X188262500Y-160187500D02*
X188263000Y-168987500D01*
X164162500Y-83987500D02*
X164162500Y-96987500D01*
X93512500Y-83487500D02*
X106512500Y-83487500D01*
X188762500Y-173687500D02*
X201762500Y-173687500D01*
X305792250Y-136359900D02*
X303744250Y-136359900D01*
X58553350Y-145351500D02*
X58553350Y-142447900D01*
X335612500Y-141137500D02*
X335612500Y-154137500D01*
X188762500Y-97487500D02*
X201762500Y-97487500D01*
X131612500Y-83487500D02*
G75*
G03*
X131112500Y-83987500I1J-500001D01*
G01*
X183212500Y-83987500D02*
G75*
G03*
X182712500Y-83487500I-500001J-1D01*
G01*
X303062500Y-97487500D02*
X316062500Y-97487500D01*
X126350000Y-122087500D02*
X126350000Y-135087500D01*
X103050000Y-159687500D02*
G75*
G03*
X102550000Y-160187500I1J-500001D01*
G01*
X112062500Y-83987500D02*
X112062500Y-96987500D01*
X150662500Y-97487500D02*
X163662500Y-97487500D01*
X239862500Y-97487500D02*
G75*
G03*
X240362500Y-96987500I-1J500001D01*
G01*
X236387500Y-116537500D02*
X249387500Y-116537500D01*
X135875000Y-141137500D02*
X135875000Y-154137500D01*
X317350000Y-159687500D02*
G75*
G03*
X316850000Y-160187500I1J-500001D01*
G01*
X121300000Y-122087500D02*
G75*
G03*
X120800000Y-121587500I-500001J-1D01*
G01*
X249085100Y-160583500D02*
X249085100Y-165679500D01*
X295418750Y-154137500D02*
G75*
G03*
X295918750Y-154637500I500087J87D01*
G01*
X174475000Y-154637500D02*
X187475000Y-154637500D01*
X111275000Y-154637500D02*
G75*
G03*
X111775000Y-154137500I-1J500001D01*
G01*
X292168750Y-154637500D02*
G75*
G03*
X292668750Y-154137500I36J499964D01*
G01*
X97487500Y-103037500D02*
G75*
G03*
X96987500Y-102537500I-500001J-1D01*
G01*
X76925000Y-159687500D02*
G75*
G03*
X76425000Y-160187500I1J-500001D01*
G01*
X56925000Y-103037500D02*
X56925000Y-116037500D01*
X297512500Y-83987500D02*
X297512500Y-96987500D01*
X80806250Y-122087500D02*
X80806250Y-135087500D01*
X107800000Y-135587500D02*
X120800000Y-135587500D01*
X183500000Y-122087500D02*
X183500000Y-135087500D01*
X335112500Y-97487500D02*
G75*
G03*
X335612500Y-96987500I-1J500001D01*
G01*
X193525000Y-140637500D02*
G75*
G03*
X193025000Y-141137500I1J-500001D01*
G01*
X207312500Y-83987500D02*
X207312500Y-96987500D01*
X323706250Y-122087500D02*
G75*
G03*
X323206250Y-121587500I-500087J-87D01*
G01*
X98275000Y-140637500D02*
X111275000Y-140637500D01*
X124050000Y-173187500D02*
G75*
G03*
X124550000Y-173687500I500001J1D01*
G01*
X241150000Y-135587500D02*
X254150000Y-135587500D01*
X202262500Y-160187500D02*
X202263000Y-168987500D01*
X178450000Y-122087500D02*
G75*
G03*
X177950000Y-121587500I-500001J-1D01*
G01*
X250175000Y-141137500D02*
X250175000Y-154137500D01*
X314100000Y-160187500D02*
G75*
G03*
X313600000Y-159687500I-500001J-1D01*
G01*
X259412500Y-83987500D02*
G75*
G03*
X258912500Y-83487500I-500001J-1D01*
G01*
X55425000Y-159687500D02*
G75*
G03*
X54925000Y-160187500I1J-500001D01*
G01*
X256603500Y-166179500D02*
X256603500Y-168473500D01*
X55425000Y-102537500D02*
X56425000Y-102537500D01*
X312168750Y-154137500D02*
G75*
G03*
X312668750Y-154637500I500087J87D01*
G01*
X81737500Y-103037500D02*
G75*
G03*
X81237500Y-102537500I-500001J-1D01*
G01*
X286475000Y-173687500D02*
X287475000Y-173687500D01*
X327120250Y-135691500D02*
G75*
G03*
X326620250Y-135191500I-500087J-87D01*
G01*
X80819000Y-153454100D02*
X81929350Y-153454100D01*
X334100000Y-173687500D02*
X335100000Y-173687500D01*
X81737500Y-103037500D02*
X81737500Y-116037500D01*
X135875000Y-154137500D02*
G75*
G03*
X136375000Y-154637500I500001J1D01*
G01*
X73175000Y-116537500D02*
G75*
G03*
X73675000Y-116037500I-1J500001D01*
G01*
X88250000Y-122087500D02*
X88250000Y-135087500D01*
X154925000Y-141137500D02*
X154925000Y-154137500D01*
X83487500Y-103037500D02*
X83487500Y-116037500D01*
X321612500Y-83987500D02*
X321612500Y-96987500D01*
X250888500Y-159583500D02*
X250888500Y-159415100D01*
X255739900Y-168973500D02*
X255739900Y-171877100D01*
X315100000Y-103037500D02*
G75*
G03*
X314600000Y-102537500I-500001J-1D01*
G01*
X57793750Y-121587500D02*
G75*
G03*
X57293750Y-122087500I1J-500001D01*
G01*
X249585100Y-160083500D02*
X250388500Y-160083500D01*
X293037500Y-116037500D02*
G75*
G03*
X293537500Y-116537500I500001J1D01*
G01*
X116825000Y-141137500D02*
X116825000Y-154137500D01*
X207812500Y-83487500D02*
G75*
G03*
X207312500Y-83987500I1J-500001D01*
G01*
X315100000Y-103037500D02*
X315100000Y-116037500D01*
X80818750Y-141137500D02*
X80819000Y-142760700D01*
X82929350Y-141947900D02*
G75*
G03*
X82429350Y-142447900I-36J-499964D01*
G01*
X220812500Y-97487500D02*
G75*
G03*
X221312500Y-96987500I-1J500001D01*
G01*
X335600000Y-103037500D02*
G75*
G03*
X335100000Y-102537500I-500001J-1D01*
G01*
X301077250Y-126301500D02*
X301440850Y-126301500D01*
X134421500Y-168973500D02*
X134785100Y-168973500D01*
X65208150Y-153954100D02*
X65208150Y-154241500D01*
X107300000Y-135087500D02*
G75*
G03*
X107800000Y-135587500I500001J1D01*
G01*
X278462500Y-83987500D02*
G75*
G03*
X277962500Y-83487500I-500001J-1D01*
G01*
X59675000Y-116037500D02*
G75*
G03*
X60175000Y-116537500I500001J1D01*
G01*
X121300000Y-160187500D02*
G75*
G03*
X120800000Y-159687500I-500001J-1D01*
G01*
X140939900Y-160083500D02*
X140136500Y-160083500D01*
X330850000Y-160187500D02*
G75*
G03*
X330350000Y-159687500I-500001J-1D01*
G01*
X193025000Y-141137500D02*
X193025000Y-154137500D01*
X248221500Y-166179500D02*
X248221500Y-168473500D01*
X331971650Y-126301500D02*
X331971650Y-123397900D01*
X112562500Y-97487500D02*
X125562500Y-97487500D01*
X290668750Y-141137500D02*
X290668750Y-154137500D01*
X273987500Y-116037500D02*
G75*
G03*
X274487500Y-116537500I500001J1D01*
G01*
X65708150Y-153454100D02*
G75*
G03*
X65208150Y-153954100I-36J-499964D01*
G01*
X308095650Y-134904100D02*
X308095650Y-135191500D01*
X82429350Y-154241500D02*
X83732750Y-154241500D01*
X63904750Y-154241500D02*
G75*
G03*
X63404750Y-154741500I-36J-499964D01*
G01*
X266475000Y-160187500D02*
X266475000Y-173187500D01*
X184000000Y-121587500D02*
G75*
G03*
X183500000Y-122087500I1J-500001D01*
G01*
X136088500Y-160083500D02*
X135285100Y-160083500D01*
X103037500Y-102537500D02*
G75*
G03*
X102537500Y-103037500I1J-500001D01*
G01*
X306537500Y-116537500D02*
G75*
G03*
X307037500Y-116037500I-1J500001D01*
G01*
X295918750Y-154637500D02*
X308918750Y-154637500D01*
X264175000Y-141137500D02*
G75*
G03*
X263675000Y-140637500I-500001J-1D01*
G01*
X201762500Y-97487500D02*
G75*
G03*
X202262500Y-96987500I-1J500001D01*
G01*
X112062500Y-96987500D02*
G75*
G03*
X112562500Y-97487500I500001J1D01*
G01*
X310206250Y-121587500D02*
G75*
G03*
X309706250Y-122087500I-36J-499964D01*
G01*
X121587500Y-116037500D02*
G75*
G03*
X122087500Y-116537500I500001J1D01*
G01*
X145400000Y-135087500D02*
G75*
G03*
X145900000Y-135587500I500001J1D01*
G01*
X117325000Y-140637500D02*
X130325000Y-140637500D01*
X74462500Y-97487500D02*
X87462500Y-97487500D01*
X331971650Y-134691500D02*
X331971650Y-129595500D01*
X303244250Y-135859900D02*
X303244250Y-135691500D01*
X265975000Y-173687500D02*
G75*
G03*
X266475000Y-173187500I-1J500001D01*
G01*
X316562500Y-83987500D02*
G75*
G03*
X316062500Y-83487500I-500001J-1D01*
G01*
X84232750Y-154909900D02*
G75*
G03*
X84732750Y-155409900I500087J87D01*
G01*
X308095650Y-123397900D02*
X308095650Y-123710700D01*
X255239900Y-172377100D02*
X249585100Y-172377100D01*
X338137798Y-175212798D02*
X338137798Y-81962800D01*
X124550000Y-173687500D02*
X125550000Y-173687500D01*
X293037500Y-103037500D02*
X293037500Y-116037500D01*
X89084150Y-142447900D02*
G75*
G03*
X88584150Y-141947900I-500087J-87D01*
G01*
X75925000Y-116537500D02*
X81237500Y-116537500D01*
X134785100Y-171877100D02*
G75*
G03*
X135285100Y-172377100I500001J1D01*
G01*
X188262500Y-83987500D02*
X188262500Y-96987500D01*
X76925000Y-159687500D02*
X77925000Y-159687500D01*
X245912500Y-83487500D02*
G75*
G03*
X245412500Y-83987500I1J-500001D01*
G01*
X102537500Y-103037500D02*
X102537500Y-116037500D01*
X254150000Y-135587500D02*
G75*
G03*
X254650000Y-135087500I-1J500001D01*
G01*
X83487500Y-173187500D02*
G75*
G03*
X83987500Y-173687500I500001J1D01*
G01*
X121300000Y-160187500D02*
X121300000Y-173187500D01*
X65208150Y-142447900D02*
G75*
G03*
X64708150Y-141947900I-500087J-87D01*
G01*
X207812500Y-97487500D02*
X220812500Y-97487500D01*
X55425000Y-173687500D02*
X56425000Y-173687500D01*
X333600000Y-160187500D02*
X333600000Y-173187500D01*
X216837500Y-103037500D02*
X216837500Y-116037500D01*
X150162500Y-83987500D02*
X150162500Y-96987500D01*
M02*
