%TF.GenerationSoftware,KiCad,Pcbnew,(6.0.2-0)*%
%TF.CreationDate,2024-03-25T07:46:48-04:00*%
%TF.ProjectId,platemount,706c6174-656d-46f7-956e-742e6b696361,rev?*%
%TF.SameCoordinates,Original*%
%TF.FileFunction,Legend,Top*%
%TF.FilePolarity,Positive*%
%FSLAX46Y46*%
G04 Gerber Fmt 4.6, Leading zero omitted, Abs format (unit mm)*
G04 Created by KiCad (PCBNEW (6.0.2-0)) date 2024-03-25 07:46:48*
%MOMM*%
%LPD*%
G01*
G04 APERTURE LIST*
%ADD10C,0.600000*%
G04 APERTURE END LIST*
D10*
X207740476Y-159608035D02*
X211740476Y-159608035D01*
X210216666Y-159608035D02*
X210407142Y-159988988D01*
X210407142Y-160750892D01*
X210216666Y-161131845D01*
X210026190Y-161322321D01*
X209645238Y-161512797D01*
X208502380Y-161512797D01*
X208121428Y-161322321D01*
X207930952Y-161131845D01*
X207740476Y-160750892D01*
X207740476Y-159988988D01*
X207930952Y-159608035D01*
X207930952Y-163036607D02*
X207740476Y-163417559D01*
X207740476Y-164179464D01*
X207930952Y-164560416D01*
X208311904Y-164750892D01*
X208502380Y-164750892D01*
X208883333Y-164560416D01*
X209073809Y-164179464D01*
X209073809Y-163608035D01*
X209264285Y-163227083D01*
X209645238Y-163036607D01*
X209835714Y-163036607D01*
X210216666Y-163227083D01*
X210407142Y-163608035D01*
X210407142Y-164179464D01*
X210216666Y-164560416D01*
X207740476Y-166465178D02*
X210407142Y-166465178D01*
X210026190Y-166465178D02*
X210216666Y-166655654D01*
X210407142Y-167036607D01*
X210407142Y-167608035D01*
X210216666Y-167988988D01*
X209835714Y-168179464D01*
X207740476Y-168179464D01*
X209835714Y-168179464D02*
X210216666Y-168369940D01*
X210407142Y-168750892D01*
X210407142Y-169322321D01*
X210216666Y-169703273D01*
X209835714Y-169893750D01*
X207740476Y-169893750D01*
X210407142Y-171227083D02*
X210407142Y-172750892D01*
X211740476Y-171798511D02*
X208311904Y-171798511D01*
X207930952Y-171988988D01*
X207740476Y-172369940D01*
X207740476Y-172750892D01*
X182594047Y-170211309D02*
X182784523Y-170592261D01*
X182784523Y-171354166D01*
X182594047Y-171735119D01*
X182403571Y-171925595D01*
X182022619Y-172116071D01*
X180879761Y-172116071D01*
X180498809Y-171925595D01*
X180308333Y-171735119D01*
X180117857Y-171354166D01*
X180117857Y-170592261D01*
X180308333Y-170211309D01*
X182784523Y-168497023D02*
X178784523Y-168497023D01*
X182784523Y-166782738D02*
X180689285Y-166782738D01*
X180308333Y-166973214D01*
X180117857Y-167354166D01*
X180117857Y-167925595D01*
X180308333Y-168306547D01*
X180498809Y-168497023D01*
X182784523Y-164306547D02*
X182594047Y-164687500D01*
X182213095Y-164877976D01*
X178784523Y-164877976D01*
X182784523Y-163163690D02*
X180117857Y-161068452D01*
X180117857Y-163163690D02*
X182784523Y-161068452D01*
M02*
