%TF.GenerationSoftware,KiCad,Pcbnew,(6.0.2-0)*%
%TF.CreationDate,2024-03-25T07:46:48-04:00*%
%TF.ProjectId,platemount,706c6174-656d-46f7-956e-742e6b696361,rev?*%
%TF.SameCoordinates,Original*%
%TF.FileFunction,Legend,Bot*%
%TF.FilePolarity,Positive*%
%FSLAX46Y46*%
G04 Gerber Fmt 4.6, Leading zero omitted, Abs format (unit mm)*
G04 Created by KiCad (PCBNEW (6.0.2-0)) date 2024-03-25 07:46:48*
%MOMM*%
%LPD*%
G01*
G04 APERTURE LIST*
%ADD10C,0.600000*%
%ADD11C,0.300000*%
G04 APERTURE END LIST*
D10*
X182784523Y-159608035D02*
X178784523Y-159608035D01*
X180308333Y-159608035D02*
X180117857Y-159988988D01*
X180117857Y-160750892D01*
X180308333Y-161131845D01*
X180498809Y-161322321D01*
X180879761Y-161512797D01*
X182022619Y-161512797D01*
X182403571Y-161322321D01*
X182594047Y-161131845D01*
X182784523Y-160750892D01*
X182784523Y-159988988D01*
X182594047Y-159608035D01*
X182594047Y-163036607D02*
X182784523Y-163417559D01*
X182784523Y-164179464D01*
X182594047Y-164560416D01*
X182213095Y-164750892D01*
X182022619Y-164750892D01*
X181641666Y-164560416D01*
X181451190Y-164179464D01*
X181451190Y-163608035D01*
X181260714Y-163227083D01*
X180879761Y-163036607D01*
X180689285Y-163036607D01*
X180308333Y-163227083D01*
X180117857Y-163608035D01*
X180117857Y-164179464D01*
X180308333Y-164560416D01*
X182784523Y-166465178D02*
X180117857Y-166465178D01*
X180498809Y-166465178D02*
X180308333Y-166655654D01*
X180117857Y-167036607D01*
X180117857Y-167608035D01*
X180308333Y-167988988D01*
X180689285Y-168179464D01*
X182784523Y-168179464D01*
X180689285Y-168179464D02*
X180308333Y-168369940D01*
X180117857Y-168750892D01*
X180117857Y-169322321D01*
X180308333Y-169703273D01*
X180689285Y-169893750D01*
X182784523Y-169893750D01*
X180117857Y-171227083D02*
X180117857Y-172750892D01*
X178784523Y-171798511D02*
X182213095Y-171798511D01*
X182594047Y-171988988D01*
X182784523Y-172369940D01*
X182784523Y-172750892D01*
D11*
X202191071Y-174197321D02*
X202191071Y-175268750D01*
X202262500Y-175483035D01*
X202405357Y-175625892D01*
X202619642Y-175697321D01*
X202762500Y-175697321D01*
X200762500Y-175697321D02*
X201476785Y-175697321D01*
X201476785Y-174197321D01*
X199405357Y-175554464D02*
X199476785Y-175625892D01*
X199691071Y-175697321D01*
X199833928Y-175697321D01*
X200048214Y-175625892D01*
X200191071Y-175483035D01*
X200262500Y-175340178D01*
X200333928Y-175054464D01*
X200333928Y-174840178D01*
X200262500Y-174554464D01*
X200191071Y-174411607D01*
X200048214Y-174268750D01*
X199833928Y-174197321D01*
X199691071Y-174197321D01*
X199476785Y-174268750D01*
X199405357Y-174340178D01*
X198333928Y-174197321D02*
X198333928Y-175268750D01*
X198405357Y-175483035D01*
X198548214Y-175625892D01*
X198762500Y-175697321D01*
X198905357Y-175697321D01*
X196905357Y-175697321D02*
X197619642Y-175697321D01*
X197619642Y-174197321D01*
X195548214Y-175554464D02*
X195619642Y-175625892D01*
X195833928Y-175697321D01*
X195976785Y-175697321D01*
X196191071Y-175625892D01*
X196333928Y-175483035D01*
X196405357Y-175340178D01*
X196476785Y-175054464D01*
X196476785Y-174840178D01*
X196405357Y-174554464D01*
X196333928Y-174411607D01*
X196191071Y-174268750D01*
X195976785Y-174197321D01*
X195833928Y-174197321D01*
X195619642Y-174268750D01*
X195548214Y-174340178D01*
X194476785Y-174197321D02*
X194476785Y-175268750D01*
X194548214Y-175483035D01*
X194691071Y-175625892D01*
X194905357Y-175697321D01*
X195048214Y-175697321D01*
X193048214Y-175697321D02*
X193762500Y-175697321D01*
X193762500Y-174197321D01*
X191691071Y-175554464D02*
X191762500Y-175625892D01*
X191976785Y-175697321D01*
X192119642Y-175697321D01*
X192333928Y-175625892D01*
X192476785Y-175483035D01*
X192548214Y-175340178D01*
X192619642Y-175054464D01*
X192619642Y-174840178D01*
X192548214Y-174554464D01*
X192476785Y-174411607D01*
X192333928Y-174268750D01*
X192119642Y-174197321D01*
X191976785Y-174197321D01*
X191762500Y-174268750D01*
X191691071Y-174340178D01*
X190619642Y-174197321D02*
X190619642Y-175268750D01*
X190691071Y-175483035D01*
X190833928Y-175625892D01*
X191048214Y-175697321D01*
X191191071Y-175697321D01*
X189191071Y-175697321D02*
X189905357Y-175697321D01*
X189905357Y-174197321D01*
X187833928Y-175554464D02*
X187905357Y-175625892D01*
X188119642Y-175697321D01*
X188262500Y-175697321D01*
X188476785Y-175625892D01*
X188619642Y-175483035D01*
X188691071Y-175340178D01*
X188762500Y-175054464D01*
X188762500Y-174840178D01*
X188691071Y-174554464D01*
X188619642Y-174411607D01*
X188476785Y-174268750D01*
X188262500Y-174197321D01*
X188119642Y-174197321D01*
X187905357Y-174268750D01*
X187833928Y-174340178D01*
D10*
X207930952Y-170211309D02*
X207740476Y-170592261D01*
X207740476Y-171354166D01*
X207930952Y-171735119D01*
X208121428Y-171925595D01*
X208502380Y-172116071D01*
X209645238Y-172116071D01*
X210026190Y-171925595D01*
X210216666Y-171735119D01*
X210407142Y-171354166D01*
X210407142Y-170592261D01*
X210216666Y-170211309D01*
X207740476Y-168497023D02*
X211740476Y-168497023D01*
X207740476Y-166782738D02*
X209835714Y-166782738D01*
X210216666Y-166973214D01*
X210407142Y-167354166D01*
X210407142Y-167925595D01*
X210216666Y-168306547D01*
X210026190Y-168497023D01*
X207740476Y-164306547D02*
X207930952Y-164687500D01*
X208311904Y-164877976D01*
X211740476Y-164877976D01*
X207740476Y-163163690D02*
X210407142Y-161068452D01*
X210407142Y-163163690D02*
X207740476Y-161068452D01*
M02*
